# This file uses centimeters as units for non-parametric coordinates.

mtllib Flathead1.mtl
g default
v 90.504698 -59.984049 -302.865284
v 90.504698 -59.984050 -306.384646
v 94.024060 -59.984050 -306.384646
v 94.024060 -59.984049 -302.865284
v 89.726849 -29.047058 -302.087440
v 89.726849 -29.047059 -307.162500
v 94.801909 -29.047059 -307.162500
v 94.801909 -29.047058 -302.087440
v 89.726849 -33.187834 -307.162499
v 89.726849 -41.537884 -307.162498
v 89.726849 -41.537882 -302.087438
v 89.726849 -33.187832 -302.087440
v 94.801909 -33.187834 -307.162499
v 94.801909 -41.537884 -307.162498
v 94.801909 -33.187833 -302.087440
v 94.801909 -41.537883 -302.087438
v 90.496685 -40.014633 -306.392662
v 90.496685 -34.711087 -306.392663
v 90.496685 -34.711085 -302.857275
v 90.496685 -40.014629 -302.857274
v 94.032072 -40.014633 -306.392662
v 94.032072 -34.711087 -306.392663
v 94.032072 -40.014633 -302.857274
v 94.032072 -34.711087 -302.857275
v 89.726849 -57.600799 -307.162495
v 94.801909 -57.600799 -307.162495
v 94.801909 -57.600798 -302.087436
v 89.726849 -57.600798 -302.087436
v 96.180319 -41.537686 -304.624968
v 96.180319 -33.185151 -304.624969
v 88.348438 -41.537685 -304.624968
v 88.348438 -33.185150 -304.624969
v 92.264379 -57.605386 -308.540906
v 92.264379 -57.605384 -300.709025
v 96.180319 -57.605385 -304.624965
v 88.348438 -57.605385 -304.624965
v 91.741534 -28.539522 -304.102125
v 92.264379 -59.989347 -304.624965
v 94.992301 -40.013981 -304.624968
v 94.992301 -34.708857 -304.624969
v 89.536456 -40.013980 -304.624968
v 89.536456 -34.708856 -304.624969
v 94.979935 -59.989347 -304.624965
v 96.180319 -29.042940 -304.624970
v 89.548822 -59.989347 -304.624965
v 88.348438 -29.042940 -304.624970
v 92.264379 -59.989346 -301.909408
v 92.264379 -29.042939 -300.709029
v 92.264379 -59.989347 -307.340522
v 92.264379 -29.042940 -308.540910
v 92.264379 -41.537684 -300.709027
v 92.264379 -33.185149 -300.709029
v 92.264379 -41.537686 -308.540908
v 92.264379 -33.185151 -308.540910
v 92.264379 -40.013979 -301.897046
v 92.264379 -34.708856 -301.897047
v 92.264379 -40.013981 -307.352890
v 92.264379 -34.708858 -307.352891
v 90.293936 -28.540827 -302.654527
v 90.293936 -28.540828 -306.595413
v 94.234822 -28.540828 -306.595413
v 94.234822 -28.540827 -302.654527
v 90.642198 -4.557840 -304.500010
v 95.305185 -28.537629 -304.624970
v 89.223572 -28.537629 -304.624970
v 92.264379 -28.537629 -301.584164
v 92.264379 -28.537630 -307.665776
v 91.741534 -28.539522 -305.147815
v 92.787224 -28.539522 -305.147815
v 92.787224 -28.539522 -304.102125
v 92.264379 -10.585628 -303.818113
v 93.071239 -28.538674 -304.624970
v 91.457519 -28.538674 -304.624970
v 92.264379 -28.538673 -303.818110
v 92.264379 -28.538674 -305.431830
v 90.642198 -4.557840 -304.749938
v 93.886558 -4.557840 -304.749938
v 93.886558 -4.557840 -304.500010
v 94.067273 -4.556991 -304.624974
v 90.461485 -4.556991 -304.624974
v 92.264379 -4.556991 -304.503608
v 92.264379 -4.556991 -304.746340
v 92.787224 -10.586478 -304.102127
v 93.071239 -10.585628 -304.624973
v 92.787224 -10.586478 -305.147818
v 91.741534 -10.586478 -304.102127
v 91.457519 -10.585628 -304.624973
v 91.741534 -10.586478 -305.147818
v 92.264379 -10.585629 -305.431833
v 90.922410 -8.423449 -305.283620
v 90.922410 -8.423449 -303.966326
v 93.606347 -8.423449 -305.283620
v 93.606347 -8.423449 -303.966326
v 92.264379 -8.421940 -305.293768
v 90.836451 -8.421940 -304.624973
v 93.692305 -8.421940 -304.624973
v 92.264379 -8.421940 -303.956179
vt 0.439803 0.301453
vt 0.456895 0.301510
vt 0.466540 0.271958
vt 0.454687 0.271893
vt 0.488359 0.301453
vt 0.519823 0.301510
vt 0.510178 0.271958
vt 0.488359 0.271893
vt 0.536915 0.301453
vt 0.519823 0.301510
vt 0.510178 0.271958
vt 0.522031 0.271893
vt 0.488359 0.301453
vt 0.456895 0.301510
vt 0.466540 0.271958
vt 0.488359 0.271893
vt 0.488359 0.271893
vt 0.450654 0.661880
vt 0.463926 0.661841
vt 0.456895 0.655564
vt 0.439803 0.655615
vt 0.456895 0.604220
vt 0.439803 0.604253
vt 0.454534 0.519579
vt 0.466440 0.519570
vt 0.456895 0.500683
vt 0.439803 0.500685
vt 0.488359 0.655615
vt 0.519823 0.655564
vt 0.519823 0.604220
vt 0.488359 0.604253
vt 0.488359 0.519579
vt 0.510278 0.519570
vt 0.519823 0.500683
vt 0.488359 0.500685
vt 0.536915 0.655615
vt 0.519823 0.655564
vt 0.519823 0.604220
vt 0.536915 0.604253
vt 0.522184 0.519579
vt 0.510278 0.519570
vt 0.519823 0.500683
vt 0.536915 0.500685
vt 0.488359 0.655615
vt 0.456895 0.655564
vt 0.456895 0.604220
vt 0.488359 0.604253
vt 0.488359 0.519579
vt 0.466440 0.519570
vt 0.456895 0.500683
vt 0.488359 0.500685
vt 0.466440 0.585332
vt 0.454534 0.585360
vt 0.510278 0.585332
vt 0.488359 0.585360
vt 0.510278 0.585332
vt 0.522184 0.585360
vt 0.466440 0.585332
vt 0.488359 0.585360
vt 0.512792 0.661841
vt 0.526064 0.661880
vt 0.235154 0.626504
vt 0.110585 0.626511
vt 0.110585 0.031692
vt 0.235154 0.031862
vt 0.235154 0.626504
vt 0.110585 0.626511
vt 0.110585 0.031692
vt 0.235154 0.031862
vt 0.235154 0.626504
vt 0.110585 0.626511
vt 0.110585 0.031692
vt 0.235153 0.031862
vt 0.512792 0.661841
vt 0.488359 0.661880
vt 0.235154 0.626504
vt 0.110585 0.626511
vt 0.110585 0.031692
vt 0.235154 0.031862
vt 0.478354 0.661867
vt 0.481876 0.661857
vt 0.488359 0.661867
vt 0.494842 0.661857
vt 0.463926 0.661841
vt 0.481876 0.661857
vt 0.488359 0.661880
vt 0.895490 0.864256
vt 0.897184 0.864226
vt 0.909325 0.949513
vt 0.907731 0.949529
vt 0.939538 0.821609
vt 0.933940 0.821592
vt 0.933940 0.467736
vt 0.939538 0.467752
vt 0.923635 0.864256
vt 0.950085 0.864226
vt 0.937944 0.949513
vt 0.923635 0.949529
vt 0.951779 0.864256
vt 0.950085 0.864226
vt 0.937944 0.949513
vt 0.939538 0.949529
vt 0.488359 0.661867
vt 0.498364 0.661867
vt 0.494842 0.661857
vt 0.923635 0.864256
vt 0.897184 0.864226
vt 0.909325 0.949513
vt 0.923635 0.949529
vt 0.923635 0.821609
vt 0.933940 0.821592
vt 0.933940 0.467736
vt 0.923635 0.467752
vt 0.907731 0.821609
vt 0.913329 0.821592
vt 0.913329 0.467736
vt 0.907731 0.467752
vt 0.923635 0.821609
vt 0.913329 0.821592
vt 0.913329 0.467736
vt 0.923635 0.467752
vn -0.976174 -0.216989 0.000000
vn -0.691863 -0.206521 -0.691863
vn -0.426325 -0.797806 -0.426325
vn -0.624360 -0.781137 0.000000
vn 0.000000 -0.216989 -0.976174
vn 0.691863 -0.206521 -0.691863
vn 0.426325 -0.797806 -0.426325
vn 0.000000 -0.781137 -0.624360
vn 0.976174 -0.216989 0.000000
vn 0.691863 -0.206521 0.691863
vn 0.426325 -0.797806 0.426325
vn 0.624360 -0.781137 0.000000
vn 0.000000 -0.216988 0.976174
vn -0.691863 -0.206521 0.691863
vn -0.426325 -0.797806 0.426325
vn 0.000000 -0.781137 0.624360
vn 0.000000 -1.000000 0.000000
vn 0.000000 -0.781137 -0.624360
vn 0.426325 -0.797806 -0.426325
vn 0.624360 -0.781137 0.000000
vn -0.331286 0.943531 -0.000000
vn -0.228867 0.946171 -0.228867
vn -0.631844 0.448941 -0.631844
vn -0.896075 0.443902 -0.000000
vn -0.896075 0.443902 -0.000000
vn -0.631844 0.448941 -0.631844
vn -0.676604 -0.290540 -0.676604
vn -0.954570 -0.297987 0.000000
vn -0.932855 0.360251 -0.000000
vn -0.669283 0.322678 -0.669283
vn -0.676655 0.290304 -0.676655
vn -0.954492 0.298235 -0.000000
vn 0.000000 0.443902 -0.896075
vn 0.631844 0.448941 -0.631844
vn 0.676604 -0.290540 -0.676604
vn 0.000000 -0.297987 -0.954570
vn 0.000000 0.360251 -0.932856
vn 0.669283 0.322678 -0.669283
vn 0.676655 0.290304 -0.676655
vn 0.000000 0.298235 -0.954493
vn 0.896075 0.443902 -0.000000
vn 0.631844 0.448941 0.631843
vn 0.676604 -0.290540 0.676604
vn 0.954570 -0.297987 0.000000
vn 0.932855 0.360251 -0.000000
vn 0.669283 0.322678 0.669283
vn 0.676655 0.290305 0.676655
vn 0.954492 0.298235 -0.000000
vn 0.000000 0.443902 0.896075
vn -0.631844 0.448941 0.631843
vn -0.676604 -0.290540 0.676604
vn 0.000000 -0.297986 0.954570
vn 0.000000 0.360251 0.932855
vn -0.669283 0.322678 0.669283
vn -0.676655 0.290305 0.676655
vn 0.000000 0.298235 0.954492
vn -0.954570 -0.297987 0.000000
vn -0.676604 -0.290540 -0.676604
vn -0.669326 -0.322501 -0.669326
vn -0.932786 -0.360431 0.000000
vn -0.932786 -0.360431 0.000000
vn -0.669326 -0.322501 -0.669326
vn -0.669283 0.322678 -0.669283
vn -0.932855 0.360251 -0.000000
vn 0.000000 -0.297987 -0.954570
vn 0.676604 -0.290540 -0.676604
vn 0.669326 -0.322501 -0.669326
vn 0.000000 -0.360431 -0.932786
vn 0.000000 -0.360431 -0.932786
vn 0.669326 -0.322501 -0.669326
vn 0.669283 0.322678 -0.669283
vn 0.000000 0.360251 -0.932856
vn 0.954570 -0.297987 0.000000
vn 0.676604 -0.290540 0.676604
vn 0.669326 -0.322501 0.669326
vn 0.932786 -0.360431 0.000000
vn 0.932786 -0.360431 0.000000
vn 0.669326 -0.322501 0.669326
vn 0.669283 0.322678 0.669283
vn 0.932855 0.360251 -0.000000
vn 0.000000 -0.297986 0.954570
vn -0.676604 -0.290540 0.676604
vn -0.669326 -0.322501 0.669326
vn 0.000000 -0.360430 0.932786
vn 0.000000 -0.360430 0.932786
vn -0.669326 -0.322501 0.669326
vn -0.669283 0.322678 0.669283
vn 0.000000 0.360251 0.932855
vn -0.954492 0.298235 -0.000000
vn -0.676655 0.290304 -0.676655
vn -0.691863 -0.206521 -0.691863
vn -0.976174 -0.216989 0.000000
vn 0.000000 0.298235 -0.954493
vn 0.676655 0.290304 -0.676655
vn 0.691863 -0.206521 -0.691863
vn 0.000000 -0.216989 -0.976174
vn 0.954492 0.298235 -0.000000
vn 0.676655 0.290305 0.676655
vn 0.691863 -0.206521 0.691863
vn 0.976174 -0.216989 0.000000
vn 0.000000 0.298235 0.954492
vn -0.676655 0.290305 0.676655
vn -0.691863 -0.206521 0.691863
vn 0.000000 -0.216988 0.976174
vn 0.691863 -0.206521 -0.691863
vn 0.976174 -0.216989 0.000000
vn 0.624360 -0.781137 0.000000
vn 0.426325 -0.797806 -0.426325
vn -0.669283 0.322678 0.669283
vn -0.932855 0.360251 -0.000000
vn -0.954492 0.298235 -0.000000
vn -0.676655 0.290305 0.676655
vn 0.669283 0.322678 -0.669283
vn 0.932855 0.360251 -0.000000
vn 0.954492 0.298235 -0.000000
vn 0.676655 0.290304 -0.676655
vn 0.896075 0.443902 -0.000000
vn 0.631844 0.448941 -0.631844
vn 0.228867 0.946171 -0.228867
vn 0.331286 0.943531 -0.000000
vn -0.631844 0.448941 0.631843
vn -0.896075 0.443902 -0.000000
vn -0.954570 -0.297987 0.000000
vn -0.676604 -0.290540 0.676604
vn 0.000000 -0.781137 0.624360
vn 0.000000 -1.000000 0.000000
vn 0.624360 -0.781137 0.000000
vn 0.426325 -0.797806 0.426325
vn -0.691863 -0.206521 0.691863
vn -0.976174 -0.216989 0.000000
vn -0.624360 -0.781137 0.000000
vn -0.426325 -0.797806 0.426325
vn 0.631844 0.448941 -0.631844
vn 0.896075 0.443902 -0.000000
vn 0.954570 -0.297987 0.000000
vn 0.676604 -0.290540 -0.676604
vn -0.676604 -0.290540 0.676604
vn -0.954570 -0.297987 0.000000
vn -0.932786 -0.360431 0.000000
vn -0.669326 -0.322501 0.669326
vn -0.669326 -0.322501 0.669326
vn -0.932786 -0.360431 0.000000
vn -0.932855 0.360251 -0.000000
vn -0.669283 0.322678 0.669283
vn 0.676604 -0.290540 -0.676604
vn 0.954570 -0.297987 0.000000
vn 0.932786 -0.360431 0.000000
vn 0.669326 -0.322501 -0.669326
vn 0.669326 -0.322501 -0.669326
vn 0.932786 -0.360431 0.000000
vn 0.932855 0.360251 -0.000000
vn 0.669283 0.322678 -0.669283
vn -0.676655 0.290305 0.676655
vn -0.954492 0.298235 -0.000000
vn -0.976174 -0.216989 0.000000
vn -0.691863 -0.206521 0.691863
vn 0.676655 0.290304 -0.676655
vn 0.954492 0.298235 -0.000000
vn 0.976174 -0.216989 0.000000
vn 0.691863 -0.206521 -0.691863
vn -0.676655 0.290304 -0.676655
vn 0.000000 0.298235 -0.954493
vn 0.000000 -0.216989 -0.976174
vn -0.691863 -0.206521 -0.691863
vn 0.331286 0.943531 -0.000000
vn 0.228867 0.946171 0.228867
vn 0.631844 0.448941 0.631843
vn 0.896075 0.443902 -0.000000
vn -0.669326 -0.322501 -0.669326
vn 0.000000 -0.360431 -0.932786
vn 0.000000 0.360251 -0.932856
vn -0.669283 0.322678 -0.669283
vn -0.669283 0.322678 -0.669283
vn 0.000000 0.360251 -0.932856
vn 0.000000 0.298235 -0.954493
vn -0.676655 0.290304 -0.676655
vn -0.676604 -0.290540 -0.676604
vn 0.000000 -0.297987 -0.954570
vn 0.000000 -0.360431 -0.932786
vn -0.669326 -0.322501 -0.669326
vn 0.669326 -0.322501 0.669326
vn 0.000000 -0.360430 0.932786
vn 0.000000 0.360251 0.932855
vn 0.669283 0.322678 0.669283
vn -0.691863 -0.206521 -0.691863
vn 0.000000 -0.216989 -0.976174
vn 0.000000 -0.781137 -0.624360
vn -0.426325 -0.797806 -0.426325
vn 0.000000 0.943531 -0.331286
vn 0.228867 0.946171 -0.228867
vn 0.631844 0.448941 -0.631844
vn 0.000000 0.443902 -0.896075
vn 0.691863 -0.206521 0.691863
vn 0.000000 -0.216988 0.976174
vn 0.000000 -0.781137 0.624360
vn 0.426325 -0.797806 0.426325
vn -0.631844 0.448941 -0.631844
vn 0.000000 0.443902 -0.896075
vn 0.000000 -0.297987 -0.954570
vn -0.676604 -0.290540 -0.676604
vn -0.426325 -0.797806 0.426325
vn -0.624360 -0.781137 0.000000
vn 0.000000 -1.000000 0.000000
vn 0.000000 -0.781137 0.624360
vn -0.624360 -0.781137 0.000000
vn -0.426325 -0.797806 -0.426325
vn 0.000000 -0.781137 -0.624360
vn 0.000000 -1.000000 0.000000
vn 0.631844 0.448941 0.631843
vn 0.000000 0.443902 0.896075
vn 0.000000 -0.297986 0.954570
vn 0.676604 -0.290540 0.676604
vn 0.676655 0.290305 0.676655
vn 0.000000 0.298235 0.954492
vn 0.000000 -0.216988 0.976174
vn 0.691863 -0.206521 0.691863
vn 0.676604 -0.290540 0.676604
vn 0.000000 -0.297986 0.954570
vn 0.000000 -0.360430 0.932786
vn 0.669326 -0.322501 0.669326
vn 0.669283 0.322678 0.669283
vn 0.000000 0.360251 0.932855
vn 0.000000 0.298235 0.954492
vn 0.676655 0.290305 0.676655
vn -0.555151 0.831750 -0.000000
vn -0.445156 0.776963 -0.445156
vn -0.228867 0.946171 -0.228867
vn -0.331286 0.943531 -0.000000
vn 0.000000 0.831750 -0.555151
vn 0.445156 0.776963 -0.445156
vn 0.228867 0.946171 -0.228867
vn 0.000000 0.943531 -0.331286
vn 0.000000 0.943531 -0.331286
vn -0.228867 0.946171 -0.228867
vn -0.445156 0.776963 -0.445156
vn 0.000000 0.831750 -0.555151
vn -0.331286 0.943531 -0.000000
vn -0.228867 0.946171 0.228867
vn -0.445156 0.776963 0.445156
vn -0.555151 0.831750 -0.000000
vn 0.000000 0.943531 0.331285
vn -0.228867 0.946171 0.228867
vn -0.631844 0.448941 0.631843
vn 0.000000 0.443902 0.896075
vn 0.000000 0.443902 0.896075
vn 0.631844 0.448941 0.631843
vn 0.228867 0.946171 0.228867
vn 0.000000 0.943531 0.331285
vn -0.896075 0.443902 -0.000000
vn -0.631844 0.448941 0.631843
vn -0.228867 0.946171 0.228867
vn -0.331286 0.943531 -0.000000
vn 0.000000 0.443902 -0.896075
vn -0.631844 0.448941 -0.631844
vn -0.228867 0.946171 -0.228867
vn 0.000000 0.943531 -0.331286
vn -0.981198 -0.193005 0.000000
vn -0.619637 -0.078710 0.780932
vn -0.437062 0.712557 0.548853
vn -0.938148 0.346236 -0.000000
vn 0.983994 -0.178201 0.000000
vn 0.647025 -0.087405 0.757442
vn 0.445156 0.776963 0.445156
vn 0.555151 0.831750 -0.000000
vn 0.000000 0.055271 0.998471
vn 0.619637 -0.078710 0.780932
vn 0.437062 0.712557 0.548853
vn 0.000000 0.754193 0.656653
vn 0.981198 -0.193005 0.000000
vn 0.619637 -0.078710 -0.780932
vn 0.437062 0.712557 -0.548853
vn 0.938148 0.346236 -0.000000
vn 0.000000 0.831750 0.555151
vn -0.445156 0.776963 0.445156
vn -0.228867 0.946171 0.228867
vn 0.000000 0.943531 0.331285
vn 0.331286 0.943531 -0.000000
vn 0.228867 0.946171 -0.228867
vn 0.445156 0.776963 -0.445156
vn 0.555151 0.831750 -0.000000
vn 0.000000 0.943531 0.331285
vn 0.228867 0.946171 0.228867
vn 0.445156 0.776963 0.445156
vn 0.000000 0.831750 0.555151
vn 0.555151 0.831750 -0.000000
vn 0.445156 0.776963 0.445156
vn 0.228867 0.946171 0.228867
vn 0.331286 0.943531 -0.000000
vn 0.000000 0.055270 -0.998471
vn -0.619637 -0.078710 -0.780932
vn -0.437062 0.712557 -0.548853
vn 0.000000 0.754193 -0.656653
vn 0.000000 -0.015382 -0.999882
vn 0.647025 -0.087405 -0.757442
vn 0.445156 0.776963 -0.445156
vn 0.000000 0.831750 -0.555151
vn -0.983994 -0.178201 0.000000
vn -0.647025 -0.087405 -0.757442
vn -0.445156 0.776963 -0.445156
vn -0.555151 0.831750 -0.000000
vn 0.000000 -0.015381 0.999882
vn -0.647025 -0.087405 0.757442
vn -0.445156 0.776963 0.445156
vn 0.000000 0.831750 0.555151
vn -0.555151 0.831750 -0.000000
vn -0.445156 0.776963 0.445156
vn -0.647025 -0.087405 0.757442
vn -0.983994 -0.178201 0.000000
vn 0.981198 -0.193005 0.000000
vn 0.619637 -0.078710 0.780932
vn 0.647025 -0.087405 0.757442
vn 0.983994 -0.178201 0.000000
vn 0.000000 0.831750 0.555151
vn 0.445156 0.776963 0.445156
vn 0.647025 -0.087405 0.757442
vn 0.000000 -0.015381 0.999882
vn 0.555151 0.831750 -0.000000
vn 0.445156 0.776963 -0.445156
vn 0.647025 -0.087405 -0.757442
vn 0.983994 -0.178201 0.000000
vn 0.000000 0.831750 -0.555151
vn -0.445156 0.776963 -0.445156
vn -0.647025 -0.087405 -0.757442
vn 0.000000 -0.015382 -0.999882
vn 0.000000 0.055270 -0.998471
vn 0.619637 -0.078710 -0.780932
vn 0.647025 -0.087405 -0.757442
vn 0.000000 -0.015382 -0.999882
vn -0.981198 -0.193005 0.000000
vn -0.619637 -0.078710 -0.780932
vn -0.647025 -0.087405 -0.757442
vn -0.983994 -0.178201 0.000000
vn 0.000000 0.055271 0.998471
vn -0.619637 -0.078710 0.780932
vn -0.647025 -0.087405 0.757442
vn 0.000000 -0.015381 0.999882
vn -0.938148 0.346236 -0.000000
vn -0.437062 0.712557 -0.548853
vn -0.619637 -0.078710 -0.780932
vn -0.981198 -0.193005 0.000000
vn 0.938148 0.346236 -0.000000
vn 0.437062 0.712557 0.548853
vn 0.619637 -0.078710 0.780932
vn 0.981198 -0.193005 0.000000
vn 0.000000 -0.015382 -0.999882
vn -0.647025 -0.087405 -0.757442
vn -0.619637 -0.078710 -0.780932
vn 0.000000 0.055270 -0.998471
vn 0.983994 -0.178201 0.000000
vn 0.647025 -0.087405 -0.757442
vn 0.619637 -0.078710 -0.780932
vn 0.981198 -0.193005 0.000000
vn -0.983994 -0.178201 0.000000
vn -0.647025 -0.087405 0.757442
vn -0.619637 -0.078710 0.780932
vn -0.981198 -0.193005 0.000000
vn 0.000000 0.754193 -0.656653
vn 0.437062 0.712557 -0.548853
vn 0.619637 -0.078710 -0.780932
vn 0.000000 0.055270 -0.998471
vn 0.000000 0.754193 0.656653
vn -0.437062 0.712557 0.548853
vn -0.619637 -0.078710 0.780932
vn 0.000000 0.055271 0.998471
vn 0.000000 -0.015381 0.999882
vn 0.647025 -0.087405 0.757442
vn 0.619637 -0.078710 0.780932
vn 0.000000 0.055271 0.998471
vn 0.000000 0.754193 -0.656653
vn -0.437062 0.712557 -0.548853
vn -0.938148 0.346236 -0.000000
vn -0.437062 0.712557 0.548853
vn 0.000000 0.754193 0.656653
vn 0.437062 0.712557 0.548853
vn 0.938148 0.346236 -0.000000
vn 0.437062 0.712557 -0.548853
s off
g polySurface4 polySurface2 toolsFBXASC046screwdrivers
usemtl toolsFBXASC046screwdriversSG
f 36/1/1 25/2/2 2/3/3 45/4/4
f 33/5/5 26/6/6 3/7/7 49/8/8
f 35/9/9 27/10/10 4/11/11 43/12/12
f 34/13/13 28/14/14 1/15/15 47/16/16
f 38/17/17 49/8/18 3/7/19 43/12/20
f 65/18/21 60/19/22 6/20/23 46/21/24
f 46/21/25 6/20/26 9/22/27 32/23/28
f 41/24/29 17/25/30 10/26/31 31/27/32
f 50/28/33 7/29/34 13/30/35 54/31/36
f 57/32/37 21/33/38 14/34/39 53/35/40
f 44/36/41 8/37/42 15/38/43 30/39/44
f 39/40/45 23/41/46 16/42/47 29/43/48
f 48/44/49 5/45/50 12/46/51 52/47/52
f 55/48/53 20/49/54 11/50/55 51/51/56
f 32/23/57 9/22/58 18/52/59 42/53/60
f 42/53/61 18/52/62 17/25/63 41/24/64
f 54/31/65 13/30/66 22/54/67 58/55/68
f 58/55/69 22/54/70 21/33/71 57/32/72
f 30/39/73 15/38/74 24/56/75 40/57/76
f 40/57/77 24/56/78 23/41/79 39/40/80
f 52/47/81 12/46/82 19/58/83 56/59/84
f 56/59/85 19/58/86 20/49/87 55/48/88
f 31/27/89 10/26/90 25/2/91 36/1/92
f 53/35/93 14/34/94 26/6/95 33/5/96
f 29/43/97 16/42/98 27/10/99 35/9/100
f 51/51/101 11/50/102 28/14/103 34/13/104
f 26/6/105 35/9/106 43/12/107 3/7/108
f 20/49/109 41/24/110 31/27/111 11/50/112
f 21/33/113 39/40/114 29/43/115 14/34/116
f 44/36/117 7/29/118 61/60/119 64/61/120
f 5/45/121 46/21/122 32/23/123 12/46/124
f 47/16/125 38/17/126 43/12/127 4/11/128
f 28/14/129 36/1/130 45/4/131 1/15/132
f 7/29/133 44/36/134 30/39/135 13/30/136
f 12/46/137 32/23/138 42/53/139 19/58/140
f 19/58/141 42/53/142 41/24/143 20/49/144
f 13/30/145 30/39/146 40/57/147 22/54/148
f 22/54/149 40/57/150 39/40/151 21/33/152
f 11/62/153 31/63/154 36/64/155 28/65/156
f 14/66/157 29/67/158 35/68/159 26/69/160
f 10/70/161 53/71/162 33/72/163 25/73/164
f 64/61/165 62/74/166 8/37/167 44/36/168
f 18/52/169 58/55/170 57/32/171 17/25/172
f 17/25/173 57/32/174 53/35/175 10/26/176
f 9/22/177 54/31/178 58/55/179 18/52/180
f 24/56/181 56/59/182 55/48/183 23/41/184
f 25/2/185 33/5/186 49/8/187 2/3/188
f 67/75/189 61/60/190 7/29/191 50/28/192
f 27/10/193 34/13/194 47/16/195 4/11/196
f 6/20/197 50/28/198 54/31/199 9/22/200
f 1/15/201 45/4/202 38/17/203 47/16/204
f 45/4/205 2/3/206 49/8/207 38/17/208
f 8/37/209 48/44/210 52/47/211 15/38/212
f 16/76/213 51/77/214 34/78/215 27/79/216
f 15/38/217 52/47/218 56/59/219 24/56/220
f 23/41/221 55/48/222 51/51/223 16/42/224
f 73/80/225 68/81/226 60/19/227 65/18/228
f 75/82/229 69/83/230 61/60/231 67/75/232
f 67/75/233 60/19/234 68/81/235 75/82/236
f 65/18/237 59/84/238 37/85/239 73/80/240
f 66/86/241 59/84/242 5/45/243 48/44/244
f 48/44/245 8/37/246 62/74/247 66/86/248
f 46/21/249 5/45/250 59/84/251 65/18/252
f 50/28/253 6/20/254 60/19/255 67/75/256
usemtl toolsFBXASC046scissorsSG1
f 95/87/257 91/88/258 63/89/259 80/90/260
f 84/91/261 83/92/262 70/93/263 72/94/264
f 97/95/265 93/96/266 78/97/267 81/98/268
f 96/99/269 92/100/270 77/101/271 79/102/272
usemtl toolsFBXASC046screwdriversSG
f 74/103/273 37/85/274 59/84/275 66/86/276
f 64/61/277 61/60/278 69/83/279 72/104/280
f 66/86/281 62/74/282 70/105/283 74/103/284
f 72/104/285 70/105/286 62/74/287 64/61/288
usemtl toolsFBXASC046scissorsSG1
f 94/106/289 90/107/290 76/108/291 82/109/292
f 89/110/293 85/111/294 69/112/295 75/113/296
f 87/114/297 88/115/298 68/116/299 73/117/300
f 71/118/301 86/119/302 37/120/303 74/121/304
f 73/117/305 37/120/306 86/119/307 87/114/308
f 96/99/309 93/96/310 83/92/311 84/91/312
f 74/121/313 70/93/314 83/92/315 71/118/316
f 72/94/317 69/112/318 85/111/319 84/91/320
f 75/113/321 68/116/322 88/115/323 89/110/324
f 94/106/325 92/100/326 85/111/327 89/110/328
f 95/87/329 90/107/330 88/115/331 87/114/332
f 97/95/333 91/88/334 86/119/335 71/118/336
f 80/90/337 76/108/338 90/107/339 95/87/340
f 79/102/341 78/97/342 93/96/343 96/99/344
f 89/110/345 88/115/346 90/107/347 94/106/348
f 84/91/349 85/111/350 92/100/351 96/99/352
f 87/114/353 86/119/354 91/88/355 95/87/356
f 82/109/357 77/101/358 92/100/359 94/106/360
f 81/98/361 63/89/362 91/88/363 97/95/364
f 71/118/365 83/92/366 93/96/367 97/95/368
f 82/109/369 76/108/370 80/90/371 63/89/372 81/98/373 78/97/374 79/102/375 77/101/376
